<svg width="351" height="300" viewBox="0 0 351 300" fill="none" xmlns="http://www.w3.org/2000/svg">
<g clip-path="url(#clip0_3:84)">
<path d="M248.987 70.2004H247.365V25.7352C247.365 22.3556 246.7 19.0091 245.408 15.8868C244.115 12.7645 242.221 9.92742 239.833 7.53768C237.445 5.14795 234.61 3.2523 231.491 1.95899C228.371 0.665667 225.027 2.66529e-06 221.65 0H127.517C124.14 -7.99559e-06 120.796 0.665646 117.676 1.95895C114.556 3.25226 111.721 5.1479 109.333 7.53763C106.946 9.92736 105.051 12.7644 103.759 15.8867C102.467 19.0091 101.802 22.3556 101.802 25.7352V269.674C101.802 276.5 104.511 283.046 109.333 287.872C114.156 292.698 120.697 295.41 127.517 295.41H221.65C228.47 295.41 235.01 292.698 239.833 287.872C244.656 283.046 247.365 276.5 247.365 269.674V101.851H248.987L248.987 70.2004Z" fill="#3F3D56"/>
<path d="M222.687 6.69542H210.4C210.965 8.08185 211.181 9.58608 211.028 11.0756C210.875 12.5651 210.359 13.9942 209.524 15.2369C208.69 16.4797 207.563 17.498 206.242 18.2021C204.922 18.9062 203.449 19.2746 201.952 19.2747H148.025C146.529 19.2746 145.056 18.9062 143.735 18.2021C142.415 17.498 141.288 16.4797 140.453 15.2369C139.619 13.9942 139.102 12.5651 138.95 11.0756C138.797 9.58607 139.013 8.08184 139.578 6.6954H128.101C123.008 6.6954 118.123 8.72022 114.522 12.3244C110.92 15.9286 108.897 20.817 108.897 25.9141V269.495C108.897 272.019 109.394 274.518 110.359 276.85C111.324 279.182 112.739 281.301 114.522 283.085C116.305 284.87 118.422 286.285 120.752 287.251C123.082 288.217 125.579 288.714 128.101 288.714H222.687C225.209 288.714 227.706 288.217 230.036 287.251C232.366 286.285 234.483 284.87 236.266 283.085C238.05 281.301 239.464 279.182 240.429 276.85C241.394 274.518 241.891 272.019 241.891 269.495V25.9142C241.891 23.3903 241.394 20.8912 240.429 18.5595C239.464 16.2277 238.05 14.1091 236.266 12.3244C234.483 10.5398 232.366 9.12418 230.036 8.15835C227.706 7.19252 225.209 6.69541 222.687 6.69542V6.69542Z" fill="white"/>
<path d="M339.367 125.439C337.379 131.33 334.33 136.698 328.117 136.698C321.904 136.698 317.218 131.647 316.867 125.439C316.42 117.507 321.761 114.148 328.117 114.181C335.626 114.22 341.726 118.448 339.367 125.439Z" fill="#2F2E41"/>
<path d="M339.071 125.186H316.868V153.332H339.071V125.186Z" fill="#2F2E41"/>
<path d="M339.723 146.155H341.611C343.007 148.146 343.955 150.416 344.39 152.809C344.824 155.201 344.736 157.66 344.129 160.015C342.031 167.995 343.71 169.465 343.71 169.465C343.71 169.465 346.442 178.107 343.504 191.127C340.566 204.146 346.228 207.685 346.228 207.685L340.982 197.185L338.044 169.465L339.723 146.155Z" fill="#E6E6E6"/>
<path d="M333.113 135.97C333.113 135.97 331.434 142.69 332.274 142.69C333.113 142.69 336.051 146.26 336.051 146.26L337.939 153.19L336.47 158.23L331.434 157.18L325.139 150.25L323.251 148.36L321.572 142.27C321.572 142.27 323.67 139.75 322.201 137.65C320.733 135.55 333.113 135.97 333.113 135.97Z" fill="#FBBEBE"/>
<path d="M282.332 154.66L277.716 147.1C277.716 147.1 272.733 136.066 269.166 140.056C265.598 144.046 274.568 152.14 274.568 152.14L279.185 158.23L282.332 154.66Z" fill="#FBBEBE"/>
<path d="M343.605 220.39L340.247 244.96C340.247 244.96 340.667 246.85 336.47 253.78C332.274 260.71 320.942 275.83 320.942 275.83L317.585 269.53C317.585 269.53 321.572 249.58 328.497 245.38L327.657 215.14L343.605 220.39Z" fill="#FBBEBE"/>
<path d="M317.585 267.01L322.201 275.83C322.201 275.83 318.424 281.137 319.893 282.186C321.362 283.236 323.251 292.686 319.264 291.636C315.277 290.586 312.129 286.386 312.129 285.756C312.129 285.127 314.437 281.71 313.178 279.61C311.919 277.51 311.08 276.88 311.08 276.88L308.568 280.223L307.518 279.593L312.129 272.68C312.129 272.68 312.759 271 315.277 269.95L317.585 267.01Z" fill="#2F2E41"/>
<path d="M327.706 216.904C327.706 216.904 329.336 240.13 325.769 246.22V276.46L320.942 277.09C320.942 277.09 311.196 261.08 314.763 245.33C318.33 229.58 311.08 215.14 311.08 215.14L327.706 216.904Z" fill="#FBBEBE"/>
<path d="M326.503 141.115C331.371 141.115 335.316 137.166 335.316 132.295C335.316 127.424 331.371 123.475 326.503 123.475C321.636 123.475 317.69 127.424 317.69 132.295C317.69 137.166 321.636 141.115 326.503 141.115Z" fill="#FBBEBE"/>
<path d="M335.421 155.5L326.608 144.37L321.572 141.01L319.474 143.74L313.598 145.42C313.598 145.42 309.821 146.26 305.834 150.88C301.847 155.5 294.713 158.23 294.713 158.23C294.713 158.23 281.913 154.03 281.913 153.19C281.913 152.35 275.827 158.86 277.296 161.38C278.765 163.9 285.766 171.599 296.048 170.129C306.33 168.659 310.241 167.26 310.241 167.26C310.241 167.26 312.129 176.92 317.585 178.81C323.041 180.7 340.877 181.96 340.877 181.96L344.654 169.36C344.654 169.36 348.851 163.9 343.185 155.92C343.185 155.92 343.077 151.457 342.467 148.487C342.231 147.332 341.918 146.403 341.507 146.05C340.038 144.79 332.274 142.69 332.274 142.69C332.274 142.69 333.533 146.89 334.162 147.1C334.792 147.31 336.261 154.45 335.421 155.5Z" fill="#9E4267"/>
<path d="M308.468 242.657C319.036 241.922 325.188 243.655 327.933 244.976C328.443 245.207 330.347 245.691 330.347 245.771C330.347 246.401 344.155 247.985 349.401 246.725C354.647 245.465 344.549 194.035 342.241 191.725C339.933 189.415 341.177 180.96 341.177 180.96C341.177 180.96 319.998 178.075 318.11 177.655C317.266 177.468 316.84 177.783 316.628 178.19C316.298 178.801 315.8 179.305 315.193 179.641C310.738 182.21 307.162 199.967 304.47 209.785C301.533 220.495 308.468 242.657 308.468 242.657Z" fill="#2F2E41"/>
<path d="M326.608 274.57C326.608 274.57 329.076 283.592 330.595 290.74C330.595 290.74 331.644 293.22 335.421 295.11C339.198 297 334.78 300.139 331.213 299.929C327.646 299.719 324.289 300.139 323.869 299.089C323.449 298.039 322.201 293.47 322.201 293.47L321.513 299.79L319.414 300L320.103 291.79C320.103 291.79 318.424 288.64 320.733 283.39L320.15 275.331C320.15 275.331 325.979 276.67 326.608 274.57Z" fill="#2F2E41"/>
<path opacity="0.1" d="M326.663 220.503C327.173 220.734 327.653 221.026 328.094 221.373C328.205 219.388 328.847 207.387 328.077 207.58L326.663 220.503Z" fill="black"/>
<path d="M322.855 120.15C322.855 120.15 322.757 119.606 318.94 121.038C315.123 122.471 312.834 133.043 314.743 139.25C315.512 141.752 314.887 143.556 313.865 144.818C310.033 149.554 311.542 156.667 317.124 159.103C317.281 159.171 317.442 159.239 317.606 159.306L319.992 160.739C319.992 160.739 316.95 156.734 318.472 151.611C319.794 147.246 319.957 142.612 318.946 138.165C318.771 137.415 318.573 136.641 318.348 135.852C316.439 129.167 317.367 129.939 324.048 123.253C324.048 123.253 327.865 126.119 331.205 127.551C334.545 128.984 337.408 130.416 335.022 135.191C332.636 139.967 326.911 144.264 330.728 150.472C334.545 156.68 335.022 154.292 334.545 156.68L334.068 159.068L336.931 156.202L335.022 160.023C335.022 160.023 341.225 160.023 343.134 155.247L344.088 156.202C344.088 156.202 347.905 149.517 340.748 143.309C340.748 143.309 338.362 141.877 341.702 137.102C345.042 132.326 342.477 122.06 338.183 120.15C333.888 118.239 322.855 120.15 322.855 120.15Z" fill="#2F2E41"/>
<path d="M26.0205 132.026L25.6685 141.108L32.727 141.382L33.0789 132.3L26.0205 132.026Z" fill="#6C062F"/>
<path d="M57.8609 163.833C57.8609 163.833 67.6357 159.159 67.4793 163.196C67.3229 167.232 57.6263 169.888 57.6263 169.888L57.8609 163.833Z" fill="#FFB9B9"/>
<path d="M52.4981 197.987C52.4981 197.987 57.1097 209.283 58.8135 217.434C60.5174 225.585 63.1123 236.803 59.7745 244.759C56.4366 252.714 46.9468 276.096 46.8491 278.619C46.7513 281.142 47.6619 283.704 45.6452 283.625C43.6285 283.547 32.6541 280.089 32.2085 278.556C31.763 277.023 35.9528 273.143 35.9528 273.143L46.2987 240.699L35.5043 219.561L27.7184 251.094L26.1934 290.45C26.1934 290.45 18.7091 288.138 17.6225 290.118C17.6225 290.118 14.2693 285.44 13.8433 283.402C13.4173 281.364 15.4269 242.532 15.4269 242.532C15.4269 242.532 8.55693 198.303 14.1028 198.518C19.6487 198.733 41.3713 185.427 52.4981 197.987Z" fill="#2F2E41"/>
<path d="M45.7234 281.607C45.7234 281.607 50.8392 292.923 51.3238 293.447C51.8084 293.971 55.1421 299.153 52.6213 299.056C50.1004 298.958 44.1481 296.2 39.767 291.988C35.3858 287.775 29.6095 280.476 30.1332 279.991C30.6569 279.506 34.2448 278.13 34.2448 278.13L45.7234 281.607Z" fill="#2F2E41"/>
<path d="M25.2828 287.888C25.2828 287.888 25.5915 292.953 26.5216 295.011C27.4518 297.068 27.3345 300.095 24.8136 299.998C22.2928 299.9 15.7776 299.908 15.7776 299.908C15.7776 299.908 15.3908 296.861 15.9145 296.376C16.4382 295.891 18.6699 289.148 17.7203 287.595C16.7706 286.042 25.2828 287.888 25.2828 287.888Z" fill="#2F2E41"/>
<path d="M21.5534 123.515C21.5534 123.515 16.1794 131.897 14.0845 133.837C11.9896 135.777 17.8832 140.048 17.8832 140.048L28.4317 141.468C28.4317 141.468 28.299 131.862 28.8423 130.872C29.3856 129.882 21.5534 123.515 21.5534 123.515Z" fill="#FFB9B9"/>
<path d="M30.7221 134.482C30.7221 134.482 28.549 138.44 26.5324 138.362C24.5157 138.284 14.0845 133.837 13.639 132.303C13.1934 130.77 10.1838 143.286 10.1838 143.286L35.7082 188.24L41.9342 183.933L38.9175 157.54L36.4399 143.295L30.7221 134.482Z" fill="white"/>
<path d="M12.6975 174.714C13.7517 176.763 14.2893 179.039 14.2634 181.344C14.2595 181.444 14.2555 181.545 14.2466 181.646C14.0051 186.316 12.286 191.717 11.6693 195.644C11.2218 198.462 11.3492 200.518 12.9967 201.002C16.991 202.167 12.4143 203.001 27.8677 208.148C43.3211 213.296 46.0179 208.852 46.057 207.843C46.0961 206.834 43.8685 199.168 44.3922 198.683C44.9159 198.198 51.7202 205.031 53.776 204.1C55.8317 203.17 54.0106 198.046 54.0106 198.046C54.0106 198.046 49.3794 187.254 49.4772 184.731C49.5749 182.209 42.462 170.31 42.462 170.31L37.6241 138.793C37.6241 138.793 35.7638 134.678 33.2625 134.075C31.6867 133.748 30.0454 134.047 28.6859 134.909L32.8715 144.167L37.2876 160.508L36.5488 166.543C36.5488 166.543 31.4135 155.732 28.0407 151.559C24.6679 147.386 17.4768 137.505 17.4768 137.505C17.4768 137.505 15.7979 131.836 17.0653 130.142C18.3329 128.443 11.7787 128.189 8.9841 135.155C7.50297 138.847 5.09826 144.352 3.59185 149.478C2.2495 154.02 1.6154 158.265 2.9453 160.692C4.97788 164.399 10.0908 169.271 12.6975 174.714Z" fill="#9E4267"/>
<path opacity="0.1" d="M2.94529 160.691C4.97789 164.399 10.0908 169.271 12.6975 174.714C13.3783 172.259 14.2089 169.719 14.2089 169.719C14.2089 169.719 17.3945 152.662 7.97161 148.254C6.4103 148.102 4.84877 148.539 3.59185 149.478C2.24949 154.02 1.61541 158.265 2.94529 160.691Z" fill="black"/>
<path d="M40.3517 159.617L48.3403 161.948L59.4321 162.378L60.5731 172.024L42.3447 173.338C42.3447 173.338 37.7918 160.528 40.3517 159.617Z" fill="#9E4267"/>
<path d="M27.3253 192.047C27.3253 192.047 38.0124 193.822 35.5732 197.04C33.1339 200.259 23.6665 196.875 23.6665 196.875L27.3253 192.047Z" fill="#FFB9B9"/>
<path opacity="0.1" d="M14.2466 181.646C14.0051 186.316 12.2861 191.717 11.6693 195.644C15.0738 198.869 18.3113 201.713 19.5314 201.761C22.0523 201.859 26.1052 201.511 27.5982 202.074C29.0911 202.637 29.9668 193.07 29.9668 193.07C29.9668 193.07 29.0757 190.003 25.101 188.333C22.4181 187.203 17.2755 184.139 14.2466 181.646Z" fill="black"/>
<path d="M8.08892 145.226C8.08892 145.226 -0.442895 143.884 0.0180248 158.051C0.478945 172.218 -0.881314 181.261 2.55014 183.921C5.9816 186.581 17.1279 198.636 19.6487 198.733C22.1696 198.831 26.2225 198.483 27.7155 199.046C29.2084 199.61 30.0841 190.043 30.0841 190.043C30.0841 190.043 29.193 186.976 25.2183 185.306C21.2436 183.636 11.8794 177.714 11.9576 175.696C12.0358 173.677 14.3262 166.692 14.3262 166.692C14.3262 166.692 17.5118 149.634 8.08892 145.226Z" fill="#9E4267"/>
<path d="M29.0769 135.926C35.2073 135.926 40.177 130.952 40.177 124.817C40.177 118.682 35.2073 113.709 29.0769 113.709C22.9465 113.709 17.9768 118.682 17.9768 124.817C17.9768 130.952 22.9465 135.926 29.0769 135.926Z" fill="#FFB9B9"/>
<path d="M36.5509 108.895C36.8186 109.126 37.1392 109.287 37.4842 109.364C37.6574 109.395 37.8357 109.356 37.9803 109.256C38.1249 109.156 38.224 109.002 38.256 108.829C38.4555 109.383 38.8265 109.859 39.315 110.188C39.8335 110.459 40.6353 110.232 40.71 109.652C40.7857 110.092 40.9805 110.504 41.2733 110.842C41.4259 111.003 41.6361 111.098 41.8581 111.105C42.0802 111.113 42.2962 111.032 42.4593 110.881C42.2322 112.123 42.3723 113.4 42.301 114.661C42.2297 115.921 41.8939 117.258 40.9423 118.086C39.5545 119.295 37.4676 118.997 35.6421 118.768C35.366 118.71 35.0796 118.726 34.8115 118.813C34.128 119.105 34.159 120.057 34.1498 120.8C34.094 122.105 33.5781 123.348 32.6936 124.307C31.8092 125.267 30.6134 125.883 29.3187 126.044C28.5941 126.156 27.8548 125.975 27.2632 125.542C26.7449 125.102 26.4801 124.385 25.8862 124.055C24.9201 123.518 23.7484 124.301 23.042 125.152C22.3357 126.003 21.6395 127.049 20.5453 127.205C19.0981 127.411 17.9959 125.935 17.4551 124.576C16.709 122.671 16.3516 120.636 16.4038 118.591C16.4561 116.545 16.917 114.531 17.7595 112.667C20.7813 106.075 31.1036 105.033 36.5509 108.895Z" fill="#2F2E41"/>
<path d="M68.8616 157.684C72.497 153.586 78.5896 153.892 83.294 155.729C89.1158 158.003 93.3282 163.06 98.0292 166.963C100.448 169.042 103.163 170.748 106.084 172.025C108.998 173.237 112.093 173.956 115.242 174.154C121.372 174.567 127.464 172.925 132.557 169.486C137.331 166.23 141.011 161.608 143.118 156.225C143.372 155.568 143.598 154.901 143.8 154.226C144.026 153.474 142.852 153.153 142.627 153.902C140.957 159.377 137.603 164.186 133.044 167.643C128.192 171.308 122.229 173.192 116.153 172.981C113.025 172.878 109.937 172.242 107.022 171.1C104.087 169.892 101.364 168.223 98.9551 166.156C94.2353 162.248 90.0388 157.278 84.2927 154.832C79.6329 152.848 73.6225 152.244 69.383 155.529C68.8832 155.916 68.4206 156.35 68.0012 156.823C67.4829 157.407 68.3404 158.271 68.8616 157.684H68.8616Z" fill="#2F2E41"/>
<path d="M265.825 135.893C265.062 130.839 260.622 127.525 256.028 126.054C249.934 124.103 243.607 125.581 237.47 126.522C234.166 127.029 230.816 127.363 227.48 126.979C223.113 126.451 218.939 124.866 215.321 122.362C211.702 119.858 208.747 116.51 206.712 112.607C203.969 107.173 203.117 100.979 204.291 95.0061C204.442 94.2569 204.628 93.5158 204.842 92.7822C204.879 92.6285 204.854 92.4667 204.774 92.3307C204.694 92.1947 204.564 92.0952 204.411 92.0532C204.259 92.0112 204.097 92.03 203.958 92.1056C203.82 92.1812 203.716 92.3077 203.669 92.4584C201.979 98.3572 202.239 104.645 204.411 110.383C206.54 115.982 210.426 120.74 215.486 123.942C220.618 127.186 226.65 128.71 232.707 128.294C236.229 128.062 239.695 127.353 243.182 126.836C246.278 126.376 249.494 126.016 252.611 126.499C257.256 127.22 262.553 129.684 264.217 134.437C264.417 135.016 264.562 135.611 264.651 136.217C264.768 136.989 265.94 136.661 265.825 135.893V135.893Z" fill="#2F2E41"/>
<path d="M175.394 214.98C174.151 213.736 172.676 212.749 171.052 212.076C169.428 211.403 167.688 211.057 165.93 211.057C164.173 211.057 162.432 211.403 160.809 212.076C159.185 212.749 157.709 213.736 156.467 214.98C155.224 216.223 154.238 217.7 153.565 219.325C152.893 220.95 152.546 222.692 152.546 224.451C152.546 226.21 152.893 227.951 153.565 229.577C154.238 231.202 155.224 232.678 156.467 233.922L175.394 252.864L194.322 233.922C195.565 232.678 196.552 231.202 197.225 229.576C197.898 227.951 198.245 226.209 198.245 224.45C198.245 222.691 197.899 220.948 197.227 219.323C196.554 217.698 195.568 216.221 194.325 214.977C193.082 213.733 191.606 212.746 189.982 212.073C188.358 211.399 186.617 211.053 184.859 211.053C183.101 211.054 181.36 211.401 179.736 212.074C178.112 212.748 176.637 213.735 175.394 214.98V214.98Z" fill="#6C062F"/>
<path d="M277.053 61.4795H160.448V84.5193H277.053V61.4795Z" fill="#E6E6E6"/>
<path d="M162.934 82.0315H274.567V63.9673H162.934V82.0315Z" fill="white"/>
<path d="M172.706 79.7318C176.504 79.7318 179.583 76.6506 179.583 72.8498C179.583 69.049 176.504 65.9678 172.706 65.9678C168.909 65.9678 165.83 69.049 165.83 72.8498C165.83 76.6506 168.909 79.7318 172.706 79.7318Z" fill="#6C062F"/>
<path d="M257.021 70.1568H189.151V71.6529H257.021V70.1568Z" fill="#E6E6E6"/>
<path d="M257.021 74.0466H189.151V75.5427H257.021V74.0466Z" fill="#E6E6E6"/>
<path d="M203.235 121.554H86.6301V144.593H203.235V121.554Z" fill="#E6E6E6"/>
<path d="M89.1158 142.106H200.749V124.041H89.1158V142.106Z" fill="white"/>
<path d="M98.8885 139.806C102.686 139.806 105.765 136.725 105.765 132.924C105.765 129.123 102.686 126.042 98.8885 126.042C95.0906 126.042 92.0118 129.123 92.0118 132.924C92.0118 136.725 95.0906 139.806 98.8885 139.806Z" fill="#6C062F"/>
<path d="M183.203 130.231H115.333V131.727H183.203V130.231Z" fill="#E6E6E6"/>
<path d="M183.203 134.121H115.333V135.617H183.203V134.121Z" fill="#E6E6E6"/>
</g>
<defs>
<clipPath id="clip0_3:84">
<rect width="350.893" height="300" fill="white"/>
</clipPath>
</defs>
</svg>
