<svg width="357" height="563" viewBox="0 0 357 563" fill="none" xmlns="http://www.w3.org/2000/svg">
<path d="M242.317 554.82H234.524L230.817 524.783H242.318L242.317 554.82Z" fill="#FFB6B6"/>
<path d="M244.304 562.368L219.177 562.367V562.05C219.178 559.458 220.208 556.972 222.042 555.139C223.876 553.306 226.364 552.277 228.957 552.277H228.958L244.304 552.277L244.304 562.368Z" fill="#2F2E41"/>
<path d="M278.451 554.82H270.659L266.952 524.783H278.453L278.451 554.82Z" fill="#FFB6B6"/>
<path d="M280.439 562.368L255.313 562.367V562.05C255.313 559.458 256.343 556.972 258.177 555.139C260.011 553.306 262.499 552.277 265.093 552.277H265.093L280.44 552.277L280.439 562.368Z" fill="#2F2E41"/>
<path d="M147.645 554.82H155.439L156.885 524.621L147.645 524.783L147.645 554.82Z" fill="#FFB6B6"/>
<path d="M145.658 552.277L161.004 552.277H161.005C163.599 552.277 166.086 553.307 167.92 555.139C169.754 556.972 170.785 559.458 170.785 562.05V562.368L145.658 562.369L145.658 552.277Z" fill="#2F2E41"/>
<path d="M116.144 554.82H123.936L125.481 524.621L116.142 524.783L116.144 554.82Z" fill="#FFB6B6"/>
<path d="M114.156 552.277L129.502 552.277H129.503C132.097 552.277 134.584 553.307 136.418 555.139C138.252 556.972 139.283 559.458 139.283 562.05V562.368L114.157 562.369L114.156 552.277Z" fill="#2F2E41"/>
<path d="M183.605 427.555C183.313 426.802 183.19 425.994 183.245 425.187C183.299 424.381 183.53 423.597 183.92 422.889C184.311 422.182 184.852 421.569 185.505 421.093C186.159 420.617 186.909 420.29 187.702 420.135L214.308 377.391L223.299 385.375L194.319 424.88C194.491 426.23 194.162 427.595 193.394 428.718C192.626 429.841 191.472 430.644 190.151 430.974C188.831 431.303 187.435 431.138 186.228 430.508C185.022 429.877 184.088 428.827 183.605 427.555V427.555Z" fill="#FFB6B6"/>
<path d="M305.204 443.376C304.464 443.049 303.805 442.565 303.273 441.956C302.741 441.348 302.349 440.63 302.125 439.854C301.901 439.077 301.849 438.261 301.975 437.463C302.1 436.665 302.399 435.904 302.85 435.234L291.419 386.209L303.425 385.5L310.887 433.913C311.963 434.746 312.697 435.944 312.948 437.281C313.2 438.618 312.952 440.001 312.251 441.167C311.551 442.333 310.446 443.203 309.147 443.61C307.848 444.017 306.445 443.933 305.204 443.376V443.376Z" fill="#FFB6B6"/>
<path d="M192.053 425.446C192.022 424.544 191.793 423.66 191.383 422.856C190.973 422.051 190.392 421.347 189.68 420.791C188.968 420.236 188.143 419.843 187.263 419.641C186.383 419.439 185.469 419.432 184.586 419.621L173.208 400.857L168.317 411.158L179.872 427.396C180.288 428.858 181.225 430.117 182.508 430.933C183.79 431.75 185.328 432.069 186.829 431.828C188.33 431.588 189.692 430.805 190.654 429.629C191.617 428.453 192.115 426.965 192.053 425.446V425.446Z" fill="#FFB6B6"/>
<path d="M96.9769 445.073C97.5079 444.342 97.8722 443.505 98.0441 442.619C98.2161 441.733 98.1916 440.82 97.9723 439.944C97.753 439.069 97.3443 438.252 96.7749 437.551C96.2055 436.85 95.4893 436.283 94.6768 435.889L97.2588 414.102L87.0621 419.215L86.1735 439.121C85.6014 440.529 85.5661 442.098 86.0741 443.53C86.5821 444.962 87.5982 446.158 88.9299 446.892C90.2616 447.626 91.8163 447.846 93.2994 447.51C94.7825 447.175 96.091 446.308 96.9769 445.073V445.073Z" fill="#FFB6B6"/>
<path d="M236.139 423.002L232.835 429.711L230.232 543.698L247.235 544.942L263.191 461.344L267.039 543.698L281.021 543.831L296.147 431.517L236.139 423.002Z" fill="#2F2E41"/>
<path d="M152.215 423.002L157.733 426.269C157.733 426.269 162.217 429.121 160.709 448.961C159.201 468.8 157.4 548.286 157.4 548.286H147.618L131.776 453.336L125.996 549.315L115.7 548.801C115.7 548.801 94.663 439.528 103.765 427.669L152.215 423.002Z" fill="#2F2E41"/>
<path d="M234.931 340.913L253.504 334.718L276.311 335.053L291.828 341.242L296.147 431.516C296.147 431.516 262.194 451.843 232.835 429.711L234.931 340.913Z" fill="#6C062F"/>
<path d="M234.931 340.118C234.931 340.118 227.603 339.26 223.519 351.414C219.435 363.567 208.634 380.01 208.634 380.01L220.448 391.081L244.078 358.331L234.931 340.118Z" fill="#6C062F"/>
<path d="M286.064 342.947L291.828 341.242C291.828 341.242 304.882 342.981 305.403 357.016C305.924 371.05 308.392 393.015 308.392 393.015L295.077 395.668L286.064 342.947Z" fill="#6C062F"/>
<path d="M100.435 352.792C100.435 352.792 127.271 344.17 148.922 352.208L147.15 393.944L160.505 426.5C160.505 426.5 118.046 442.959 103.897 429.127L108.024 396.517L100.435 352.792Z" fill="#6C062F"/>
<path d="M141.708 357.11L147.331 352.209C147.331 352.209 151.083 352.164 154.311 357.931C157.539 363.699 163.387 382.315 163.387 382.315L182.111 414.009L173.874 419.668L144.178 378.166L141.708 357.11Z" fill="#6C062F"/>
<path d="M101.431 354.85L101.814 352.235C101.814 352.235 91.3581 353.008 90.4735 363.076C89.589 373.144 86.355 429.958 86.355 429.958L96.6976 432.016L106.986 373.705L101.431 354.85Z" fill="#6C062F"/>
<path d="M266.393 326.402C275.977 326.402 283.747 318.638 283.747 309.061C283.747 299.483 275.977 291.719 266.393 291.719C256.809 291.719 249.04 299.483 249.04 309.061C249.04 318.638 256.809 326.402 266.393 326.402Z" fill="#FFB6B6"/>
<path d="M137.679 337.708L106.309 343.881C105.664 344.007 104.995 343.872 104.449 343.506C103.903 343.14 103.524 342.572 103.396 341.927L100.734 328.415C100.265 326.037 100.27 323.59 100.748 321.214C101.225 318.838 102.167 316.579 103.518 314.567C106.247 310.503 110.479 307.688 115.285 306.742C120.09 305.797 125.075 306.798 129.142 309.525C133.209 312.252 136.025 316.482 136.971 321.284L139.634 334.796C139.76 335.441 139.626 336.11 139.259 336.656C138.893 337.202 138.325 337.58 137.679 337.708V337.708Z" fill="#2F2E41"/>
<path d="M123.04 340.002C130.517 340.002 136.579 333.944 136.579 326.472C136.579 318.999 130.517 312.941 123.04 312.941C115.562 312.941 109.501 318.999 109.501 326.472C109.501 333.944 115.562 340.002 123.04 340.002Z" fill="#FFB6B6"/>
<path d="M141.524 321.791L122.342 325.566L121.603 322.853L121.162 325.798L118.208 326.38L116.744 321.002L115.869 326.84L110.154 327.965L110.101 327.694C109.357 323.896 110.151 319.958 112.309 316.744C114.467 313.53 117.812 311.303 121.611 310.551L124.316 310.018C128.117 309.275 132.057 310.068 135.273 312.225C138.49 314.381 140.718 317.725 141.471 321.521L141.524 321.791Z" fill="#2F2E41"/>
<path d="M125.558 342.713C125.413 342.741 125.267 342.757 125.12 342.76L110.586 343.047L106.014 319.849L121.476 316.806L121.181 317.328C117.079 324.583 123.074 333.859 127.014 338.742C127.304 339.099 127.486 339.531 127.541 339.988C127.596 340.445 127.521 340.908 127.324 341.324C127.161 341.678 126.916 341.989 126.608 342.231C126.301 342.472 125.941 342.638 125.558 342.713V342.713Z" fill="#2F2E41"/>
<path d="M249.506 293.427C251.627 292.774 253.92 293.098 256.085 293.582L255.878 294.108C261.05 291.112 267.205 289.455 273.071 290.603C278.938 291.75 284.344 296.07 285.764 301.873C286.28 304.192 286.311 306.592 285.857 308.924C285.237 312.349 283.9 315.605 281.935 318.479C279.97 321.353 277.42 323.78 274.452 325.602C273.709 326.051 272.563 326.373 272.123 325.623C271.624 324.772 272.75 323.908 273.086 322.981C273.453 321.966 272.785 320.84 271.917 320.197C271.049 319.555 269.99 319.222 269.082 318.637C268.176 317.982 267.417 317.147 266.852 316.183C266.286 315.22 265.928 314.149 265.799 313.039C265.555 310.821 265.623 308.58 266.002 306.381C262.515 307.656 258.844 308.361 255.133 308.469C253.818 308.589 252.494 308.38 251.281 307.86C249.723 307.066 248.784 305.456 247.93 303.93C247.573 303.292 247.215 302.653 246.858 302.014C246.087 300.87 245.619 299.55 245.499 298.176C245.499 295.958 247.385 294.08 249.506 293.427Z" fill="#2F2E41"/>
</svg>
